<mxfile modified="2022-05-02T20:00:06.176Z" host="app.diagrams.net" agent="5.0 (Windows NT 10.0; Win64; x64) AppleWebKit/537.36 (KHTML, like Gecko) Chrome/100.0.4896.127 Safari/537.36 Edg/100.0.1185.50" etag="QQf6bMgATckYdNpDQb7l" compressed="false" version="17.5.0" type="google">
  <diagram id="4FliIYP9k1EK2X4LYGpC" name="ISO-25030 Requirement Classification">
    <mxGraphModel grid="1" page="1" gridSize="10" guides="1" tooltips="1" connect="1" arrows="1" fold="1" pageScale="1" pageWidth="827" pageHeight="1169" math="0" shadow="0">
      <root>
        <mxCell id="6tugmoYta3Q61b3DQbXI-0" />
        <mxCell id="6tugmoYta3Q61b3DQbXI-1" parent="6tugmoYta3Q61b3DQbXI-0" />
        <mxCell id="6tugmoYta3Q61b3DQbXI-2" value="S" style="rounded=0;whiteSpace=wrap;html=1;strokeColor=#000000;fontSize=11;" vertex="1" parent="6tugmoYta3Q61b3DQbXI-1">
          <mxGeometry x="260" y="290" width="70" height="640" as="geometry" />
        </mxCell>
        <mxCell id="6tugmoYta3Q61b3DQbXI-3" value="Software Requirements" style="rounded=0;whiteSpace=wrap;html=1;strokeColor=#000000;fontSize=11;" vertex="1" parent="6tugmoYta3Q61b3DQbXI-1">
          <mxGeometry x="330" y="290" width="70" height="360" as="geometry" />
        </mxCell>
        <mxCell id="6tugmoYta3Q61b3DQbXI-4" value="Software Product Requirements" style="rounded=0;whiteSpace=wrap;html=1;strokeColor=#000000;fontSize=11;" vertex="1" parent="6tugmoYta3Q61b3DQbXI-1">
          <mxGeometry x="400" y="330" width="70" height="240" as="geometry" />
        </mxCell>
        <mxCell id="6tugmoYta3Q61b3DQbXI-5" value="Software Development Requirements" style="rounded=0;whiteSpace=wrap;html=1;strokeColor=#000000;fontSize=11;" vertex="1" parent="6tugmoYta3Q61b3DQbXI-1">
          <mxGeometry x="400" y="570" width="70" height="80" as="geometry" />
        </mxCell>
        <mxCell id="6tugmoYta3Q61b3DQbXI-6" value="Other System Requirements" style="rounded=0;whiteSpace=wrap;html=1;strokeColor=#000000;fontSize=11;" vertex="1" parent="6tugmoYta3Q61b3DQbXI-1">
          <mxGeometry x="330" y="650" width="70" height="280" as="geometry" />
        </mxCell>
        <mxCell id="6tugmoYta3Q61b3DQbXI-7" value="Recoverability&lt;br&gt;Requirements" style="rounded=0;whiteSpace=wrap;html=1;strokeColor=#000000;fontSize=11;" vertex="1" parent="6tugmoYta3Q61b3DQbXI-1">
          <mxGeometry x="400" y="770" width="70" height="40" as="geometry" />
        </mxCell>
        <mxCell id="6tugmoYta3Q61b3DQbXI-8" value="Data Quality Requirements" style="rounded=0;whiteSpace=wrap;html=1;strokeColor=#6c8ebf;fontSize=11;fillColor=#dae8fc;" vertex="1" parent="6tugmoYta3Q61b3DQbXI-1">
          <mxGeometry x="400" y="650" width="70" height="40" as="geometry" />
        </mxCell>
        <mxCell id="6tugmoYta3Q61b3DQbXI-9" value="Human Resource Requirements" style="rounded=0;whiteSpace=wrap;html=1;strokeColor=#000000;fontSize=11;" vertex="1" parent="6tugmoYta3Q61b3DQbXI-1">
          <mxGeometry x="400" y="850" width="70" height="40" as="geometry" />
        </mxCell>
        <mxCell id="6tugmoYta3Q61b3DQbXI-10" value="BPMN Requirements" style="rounded=0;whiteSpace=wrap;html=1;strokeColor=#000000;fontSize=11;" vertex="1" parent="6tugmoYta3Q61b3DQbXI-1">
          <mxGeometry x="400" y="890" width="70" height="40" as="geometry" />
        </mxCell>
        <mxCell id="6tugmoYta3Q61b3DQbXI-11" value="Development Process Requirements" style="rounded=0;whiteSpace=wrap;html=1;strokeColor=#000000;fontSize=11;" vertex="1" parent="6tugmoYta3Q61b3DQbXI-1">
          <mxGeometry x="470" y="570" width="70" height="40" as="geometry" />
        </mxCell>
        <mxCell id="6tugmoYta3Q61b3DQbXI-12" value="Delivery Requireements" style="rounded=0;whiteSpace=wrap;html=1;strokeColor=#000000;fontSize=11;" vertex="1" parent="6tugmoYta3Q61b3DQbXI-1">
          <mxGeometry x="400" y="690" width="70" height="40" as="geometry" />
        </mxCell>
        <mxCell id="6tugmoYta3Q61b3DQbXI-13" value="Assigned Property Requirements" style="rounded=0;whiteSpace=wrap;html=1;strokeColor=#000000;fontSize=11;" vertex="1" parent="6tugmoYta3Q61b3DQbXI-1">
          <mxGeometry x="470" y="490" width="70" height="80" as="geometry" />
        </mxCell>
        <mxCell id="6tugmoYta3Q61b3DQbXI-14" value="Managed Property Requirements" style="rounded=0;whiteSpace=wrap;html=1;strokeColor=#000000;fontSize=11;" vertex="1" parent="6tugmoYta3Q61b3DQbXI-1">
          <mxGeometry x="540" y="490" width="70" height="40" as="geometry" />
        </mxCell>
        <mxCell id="6tugmoYta3Q61b3DQbXI-15" value="Managerial Reporting Requirements" style="rounded=0;whiteSpace=wrap;html=1;strokeColor=#000000;fontSize=11;" vertex="1" parent="6tugmoYta3Q61b3DQbXI-1">
          <mxGeometry x="540" y="530" width="70" height="40" as="geometry" />
        </mxCell>
        <mxCell id="6tugmoYta3Q61b3DQbXI-16" value="Inherent Property Requirements" style="rounded=0;whiteSpace=wrap;html=1;strokeColor=#000000;fontSize=11;" vertex="1" parent="6tugmoYta3Q61b3DQbXI-1">
          <mxGeometry x="470" y="330" width="70" height="160" as="geometry" />
        </mxCell>
        <mxCell id="6tugmoYta3Q61b3DQbXI-17" value="Quality in Use Requirements" style="rounded=0;whiteSpace=wrap;html=1;strokeColor=#82b366;fontSize=11;fillColor=#d5e8d4;" vertex="1" parent="6tugmoYta3Q61b3DQbXI-1">
          <mxGeometry x="610" y="370" width="70" height="40" as="geometry" />
        </mxCell>
        <mxCell id="6tugmoYta3Q61b3DQbXI-18" value="Functional Requirements" style="rounded=0;whiteSpace=wrap;html=1;strokeColor=#d79b00;fontSize=11;fillColor=#ffe6cc;" vertex="1" parent="6tugmoYta3Q61b3DQbXI-1">
          <mxGeometry x="540" y="330" width="70" height="40" as="geometry" />
        </mxCell>
        <mxCell id="6tugmoYta3Q61b3DQbXI-19" value="Development Organisation Requirements" style="rounded=0;whiteSpace=wrap;html=1;strokeColor=#000000;fontSize=11;" vertex="1" parent="6tugmoYta3Q61b3DQbXI-1">
          <mxGeometry x="470" y="610" width="70" height="120" as="geometry" />
        </mxCell>
        <mxCell id="6tugmoYta3Q61b3DQbXI-20" value="" style="rounded=0;whiteSpace=wrap;html=1;strokeColor=none;fontSize=11;fillColor=#f5f5f5;fontColor=#333333;" vertex="1" parent="6tugmoYta3Q61b3DQbXI-1">
          <mxGeometry x="470" y="730" width="70" height="200" as="geometry" />
        </mxCell>
        <mxCell id="6tugmoYta3Q61b3DQbXI-21" value="" style="rounded=0;whiteSpace=wrap;html=1;strokeColor=none;fontSize=11;fillColor=#f5f5f5;fontColor=#333333;" vertex="1" parent="6tugmoYta3Q61b3DQbXI-1">
          <mxGeometry x="540" y="570" width="70" height="360" as="geometry" />
        </mxCell>
        <mxCell id="6tugmoYta3Q61b3DQbXI-22" value="Software Quality Requirements" style="rounded=0;whiteSpace=wrap;html=1;strokeColor=#6c8ebf;fontSize=11;fillColor=#dae8fc;" vertex="1" parent="6tugmoYta3Q61b3DQbXI-1">
          <mxGeometry x="540" y="370" width="70" height="120" as="geometry" />
        </mxCell>
        <mxCell id="6tugmoYta3Q61b3DQbXI-23" value="" style="rounded=0;whiteSpace=wrap;html=1;strokeColor=none;fontSize=11;fillColor=#f5f5f5;fontColor=#333333;" vertex="1" parent="6tugmoYta3Q61b3DQbXI-1">
          <mxGeometry x="610" y="490" width="70" height="440" as="geometry" />
        </mxCell>
        <mxCell id="6tugmoYta3Q61b3DQbXI-24" value="&lt;i&gt;&lt;u&gt;Service&lt;/u&gt;&lt;/i&gt; Quality Requirements" style="rounded=0;whiteSpace=wrap;html=1;strokeColor=#000000;fontSize=11;" vertex="1" parent="6tugmoYta3Q61b3DQbXI-1">
          <mxGeometry x="400" y="290" width="70" height="40" as="geometry" />
        </mxCell>
        <mxCell id="6tugmoYta3Q61b3DQbXI-25" value="" style="rounded=0;whiteSpace=wrap;html=1;strokeColor=none;fontSize=11;fillColor=#f5f5f5;fontColor=#333333;" vertex="1" parent="6tugmoYta3Q61b3DQbXI-1">
          <mxGeometry x="470" y="290" width="70" height="40" as="geometry" />
        </mxCell>
        <mxCell id="6tugmoYta3Q61b3DQbXI-26" value="ISO-25011" style="rounded=0;whiteSpace=wrap;html=1;strokeColor=#000000;fontSize=11;fillColor=#f5f5f5;fontColor=#333333;align=center;absoluteArcSize=1;arcSize=6;strokeWidth=2;" vertex="1" parent="6tugmoYta3Q61b3DQbXI-1">
          <mxGeometry x="120" y="290" width="70" height="40" as="geometry" />
        </mxCell>
        <mxCell id="6tugmoYta3Q61b3DQbXI-27" value="ISO-25022" style="rounded=0;whiteSpace=wrap;html=1;strokeColor=#000000;fontSize=11;align=center;fillColor=#f5f5f5;fontColor=#333333;opacity=30;absoluteArcSize=1;arcSize=6;strokeWidth=2;" vertex="1" parent="6tugmoYta3Q61b3DQbXI-1">
          <mxGeometry x="120" y="370" width="70" height="40" as="geometry" />
        </mxCell>
        <mxCell id="6tugmoYta3Q61b3DQbXI-28" value="ISO-25010" style="rounded=0;whiteSpace=wrap;html=1;strokeColor=#000000;fontSize=11;fillColor=#f5f5f5;fontColor=#333333;align=center;absoluteArcSize=1;arcSize=6;strokeWidth=2;" vertex="1" parent="6tugmoYta3Q61b3DQbXI-1">
          <mxGeometry x="120" y="410" width="70" height="80" as="geometry" />
        </mxCell>
        <mxCell id="6tugmoYta3Q61b3DQbXI-29" value="ISO-25012" style="rounded=0;whiteSpace=wrap;html=1;strokeColor=#000000;fontSize=11;align=center;fillColor=#f5f5f5;fontColor=#333333;absoluteArcSize=1;arcSize=6;strokeWidth=2;" vertex="1" parent="6tugmoYta3Q61b3DQbXI-1">
          <mxGeometry x="120" y="650" width="70" height="40" as="geometry" />
        </mxCell>
        <mxCell id="6tugmoYta3Q61b3DQbXI-30" value="Quality Requirements&lt;br style=&quot;font-size: 11px&quot;&gt;&lt;b&gt;ISO-25030&lt;/b&gt;" style="rounded=0;whiteSpace=wrap;html=1;fontSize=11;" vertex="1" parent="6tugmoYta3Q61b3DQbXI-1">
          <mxGeometry x="190" y="290" width="70" height="640" as="geometry" />
        </mxCell>
        <mxCell id="6tugmoYta3Q61b3DQbXI-31" value="Acquiring/&lt;br&gt;Evaluation Process" style="rounded=0;whiteSpace=wrap;html=1;strokeColor=#000000;fontSize=11;" vertex="1" parent="6tugmoYta3Q61b3DQbXI-1">
          <mxGeometry x="400" y="250" width="70" height="40" as="geometry" />
        </mxCell>
        <mxCell id="6tugmoYta3Q61b3DQbXI-32" value="ISO-25040/41" style="rounded=0;whiteSpace=wrap;html=1;strokeColor=#000000;fontSize=11;fillColor=#f5f5f5;fontColor=#333333;align=center;absoluteArcSize=1;arcSize=6;strokeWidth=2;" vertex="1" parent="6tugmoYta3Q61b3DQbXI-1">
          <mxGeometry x="120" y="250" width="70" height="40" as="geometry" />
        </mxCell>
        <mxCell id="6tugmoYta3Q61b3DQbXI-33" value="" style="rounded=0;whiteSpace=wrap;html=1;strokeColor=#000000;fontSize=11;" vertex="1" parent="6tugmoYta3Q61b3DQbXI-1">
          <mxGeometry x="610" y="410" width="70" height="80" as="geometry" />
        </mxCell>
        <mxCell id="6tugmoYta3Q61b3DQbXI-34" value="External Quality Requirements" style="rounded=0;whiteSpace=wrap;html=1;strokeColor=#6c8ebf;fontSize=11;dashed=1;fillColor=#dae8fc;fixDash=1;" vertex="1" parent="6tugmoYta3Q61b3DQbXI-1">
          <mxGeometry x="610" y="410" width="70" height="40" as="geometry" />
        </mxCell>
        <mxCell id="6tugmoYta3Q61b3DQbXI-35" value="Internal Quality Requirements" style="rounded=0;whiteSpace=wrap;html=1;strokeColor=#6c8ebf;fontSize=11;dashed=1;fillColor=#dae8fc;fixDash=1;" vertex="1" parent="6tugmoYta3Q61b3DQbXI-1">
          <mxGeometry x="610" y="450" width="70" height="40" as="geometry" />
        </mxCell>
        <mxCell id="6tugmoYta3Q61b3DQbXI-36" value="Hardware Requirements" style="rounded=0;whiteSpace=wrap;html=1;strokeColor=#000000;fontSize=11;" vertex="1" parent="6tugmoYta3Q61b3DQbXI-1">
          <mxGeometry x="400" y="810" width="70" height="40" as="geometry" />
        </mxCell>
        <mxCell id="6tugmoYta3Q61b3DQbXI-37" value="ISO-25045" style="rounded=1;whiteSpace=wrap;html=1;strokeColor=#000000;fontSize=11;align=center;fillColor=#f5f5f5;fontColor=#333333;absoluteArcSize=1;arcSize=6;strokeWidth=2;" vertex="1" parent="6tugmoYta3Q61b3DQbXI-1">
          <mxGeometry x="120" y="770" width="70" height="40" as="geometry" />
        </mxCell>
        <mxCell id="6tugmoYta3Q61b3DQbXI-38" value="ISO-25001" style="rounded=0;whiteSpace=wrap;html=1;strokeColor=#000000;fontSize=11;fillColor=#f5f5f5;fontColor=#333333;align=center;absoluteArcSize=1;arcSize=6;strokeWidth=2;" vertex="1" parent="6tugmoYta3Q61b3DQbXI-1">
          <mxGeometry x="120" y="210" width="70" height="40" as="geometry" />
        </mxCell>
        <mxCell id="6tugmoYta3Q61b3DQbXI-39" value="Planning &amp;amp; Management" style="rounded=0;whiteSpace=wrap;html=1;strokeColor=#000000;fontSize=11;" vertex="1" parent="6tugmoYta3Q61b3DQbXI-1">
          <mxGeometry x="400" y="210" width="70" height="40" as="geometry" />
        </mxCell>
        <mxCell id="6tugmoYta3Q61b3DQbXI-40" value="" style="rounded=0;whiteSpace=wrap;html=1;strokeColor=#000000;fontSize=11;fillColor=none;fontColor=#333333;strokeWidth=2;" vertex="1" parent="6tugmoYta3Q61b3DQbXI-1">
          <mxGeometry x="120" y="330" width="70" height="40" as="geometry" />
        </mxCell>
        <mxCell id="6tugmoYta3Q61b3DQbXI-41" value="" style="rounded=0;whiteSpace=wrap;html=1;strokeColor=#000000;fontSize=11;fillColor=none;fontColor=#333333;strokeWidth=2;" vertex="1" parent="6tugmoYta3Q61b3DQbXI-1">
          <mxGeometry x="120" y="490" width="70" height="160" as="geometry" />
        </mxCell>
        <mxCell id="6tugmoYta3Q61b3DQbXI-42" value="" style="rounded=0;whiteSpace=wrap;html=1;strokeColor=#000000;fontSize=11;fillColor=none;fontColor=#333333;strokeWidth=2;" vertex="1" parent="6tugmoYta3Q61b3DQbXI-1">
          <mxGeometry x="120" y="690" width="70" height="80" as="geometry" />
        </mxCell>
        <mxCell id="6tugmoYta3Q61b3DQbXI-43" value="" style="rounded=0;whiteSpace=wrap;html=1;strokeColor=#000000;fontSize=11;fillColor=none;fontColor=#333333;strokeWidth=2;" vertex="1" parent="6tugmoYta3Q61b3DQbXI-1">
          <mxGeometry x="120" y="810" width="70" height="120" as="geometry" />
        </mxCell>
        <mxCell id="6tugmoYta3Q61b3DQbXI-44" value="" style="rounded=0;whiteSpace=wrap;html=1;strokeColor=none;fontSize=11;fillColor=#f5f5f5;fontColor=#333333;" vertex="1" parent="6tugmoYta3Q61b3DQbXI-1">
          <mxGeometry x="190" y="210" width="210" height="80" as="geometry" />
        </mxCell>
        <mxCell id="6tugmoYta3Q61b3DQbXI-45" value="" style="rounded=0;whiteSpace=wrap;html=1;strokeColor=none;fontSize=11;fillColor=#f5f5f5;fontColor=#333333;" vertex="1" parent="6tugmoYta3Q61b3DQbXI-1">
          <mxGeometry x="470" y="210" width="210" height="80" as="geometry" />
        </mxCell>
        <mxCell id="6tugmoYta3Q61b3DQbXI-46" value="" style="rounded=0;whiteSpace=wrap;html=1;strokeColor=none;fontSize=11;fillColor=#f5f5f5;fontColor=#333333;" vertex="1" parent="6tugmoYta3Q61b3DQbXI-1">
          <mxGeometry x="540" y="290" width="140" height="40" as="geometry" />
        </mxCell>
        <mxCell id="6tugmoYta3Q61b3DQbXI-47" value="" style="rounded=0;whiteSpace=wrap;html=1;strokeColor=none;fontSize=11;fillColor=#f5f5f5;fontColor=#333333;" vertex="1" parent="6tugmoYta3Q61b3DQbXI-1">
          <mxGeometry x="610" y="330" width="70" height="40" as="geometry" />
        </mxCell>
        <mxCell id="6tugmoYta3Q61b3DQbXI-48" value="ISO-25022" style="rounded=0;whiteSpace=wrap;html=1;strokeColor=#000000;fontSize=11;align=center;fillColor=#f5f5f5;fontColor=#333333;opacity=30;absoluteArcSize=1;arcSize=6;strokeWidth=2;" vertex="1" parent="6tugmoYta3Q61b3DQbXI-1">
          <mxGeometry x="120" y="370" width="70" height="40" as="geometry" />
        </mxCell>
        <mxCell id="6tugmoYta3Q61b3DQbXI-49" value="Operations&lt;br&gt;(&quot;Driving&quot;)&lt;br&gt;&amp;nbsp;Requirements" style="rounded=0;whiteSpace=wrap;html=1;strokeColor=#000000;fontSize=11;" vertex="1" parent="6tugmoYta3Q61b3DQbXI-1">
          <mxGeometry x="400" y="730" width="70" height="40" as="geometry" />
        </mxCell>
        <mxCell id="6tugmoYta3Q61b3DQbXI-50" value="&lt;font style=&quot;font-size: 11px&quot;&gt;ISO&amp;nbsp;&amp;nbsp;to use&lt;br&gt;&lt;/font&gt;" style="text;strokeColor=#666666;fillColor=#B3B3B3;html=1;fontSize=12;fontStyle=1;verticalAlign=middle;align=left;shadow=0;glass=0;comic=0;spacing=6;fontColor=#333333;strokeWidth=2;" vertex="1" parent="6tugmoYta3Q61b3DQbXI-1">
          <mxGeometry x="120" y="180" width="70" height="30" as="geometry" />
        </mxCell>
        <mxCell id="6tugmoYta3Q61b3DQbXI-51" value="&lt;font style=&quot;font-size: 11px&quot;&gt;Requirements Categorization&lt;br&gt;&lt;/font&gt;" style="text;strokeColor=#666666;fillColor=#B3B3B3;html=1;fontSize=12;fontStyle=1;verticalAlign=middle;align=left;shadow=0;glass=0;comic=0;spacing=6;fontColor=#333333;strokeWidth=2;" vertex="1" parent="6tugmoYta3Q61b3DQbXI-1">
          <mxGeometry x="190" y="180" width="490" height="30" as="geometry" />
        </mxCell>
        <mxCell id="6tugmoYta3Q61b3DQbXI-52" value="Agile &lt;br&gt;Stakeholder desire management,&amp;nbsp;&lt;br&gt;DevOps &amp;amp; SecOps&lt;br&gt;approaches should be defined here to ensure developement proceed at pace." style="shape=note;whiteSpace=wrap;html=1;size=14;verticalAlign=top;align=left;spacingTop=-6;strokeColor=#d6b656;strokeWidth=1;fillColor=#fff2cc;fontStyle=2" vertex="1" parent="6tugmoYta3Q61b3DQbXI-1">
          <mxGeometry x="570" y="580" width="100" height="180" as="geometry" />
        </mxCell>
        <mxCell id="6tugmoYta3Q61b3DQbXI-53" value="" style="endArrow=classic;html=1;exitX=0;exitY=0.5;exitDx=0;exitDy=0;exitPerimeter=0;entryX=1;entryY=0.5;entryDx=0;entryDy=0;edgeStyle=elbowEdgeStyle;" edge="1" parent="6tugmoYta3Q61b3DQbXI-1" source="6tugmoYta3Q61b3DQbXI-52" target="6tugmoYta3Q61b3DQbXI-11">
          <mxGeometry width="50" height="50" relative="1" as="geometry">
            <mxPoint x="830" y="860" as="sourcePoint" />
            <mxPoint x="880" y="810" as="targetPoint" />
          </mxGeometry>
        </mxCell>
        <mxCell id="6tugmoYta3Q61b3DQbXI-54" value="&lt;font style=&quot;line-height: 90% ; font-size: 11px&quot; color=&quot;#990000&quot;&gt;Although essential, Functional Qualities,&amp;nbsp; are essentially a small fraction of the requirements requiring consideration to decrease risk of project budget &amp;amp; resources failure. Consider: Stakeholder processes (eg: Agile),Pipeline Automation (ie Dev/Sec Ops), Qualities, Service/ongoing reqs.&lt;/font&gt;" style="shape=note;whiteSpace=wrap;html=1;size=14;verticalAlign=top;align=left;spacingTop=-6;strokeColor=#b85450;strokeWidth=1;fillColor=#f8cecc;opacity=33;fontStyle=2;" vertex="1" parent="6tugmoYta3Q61b3DQbXI-1">
          <mxGeometry x="480" y="210" width="200" height="110" as="geometry" />
        </mxCell>
        <mxCell id="6tugmoYta3Q61b3DQbXI-55" value="&lt;font style=&quot;font-size: 12px&quot;&gt;Diagram: Appendices - Qualities - ISO-25030 quality requirements classification&lt;/font&gt;" style="text;strokeColor=none;fillColor=none;html=1;fontSize=24;fontStyle=2;verticalAlign=middle;align=left;shadow=0;glass=0;comic=0;opacity=30;fontColor=#808080;" vertex="1" parent="6tugmoYta3Q61b3DQbXI-1">
          <mxGeometry x="120" y="940" width="520" height="20" as="geometry" />
        </mxCell>
      </root>
    </mxGraphModel>
  </diagram>
</mxfile>
